<svg width="140" height="12" viewBox="0 0 140 12" fill="none" xmlns="http://www.w3.org/2000/svg">
<path d="M0.138598 5.98875C0.138598 2.48544 3.05686 0.09375 7.45163 0.09375C8.94526 0.09896 10.4224 0.396869 11.7943 0.969579L11.1342 2.73808C10.0115 2.23489 8.79255 1.96524 7.55586 1.94646C4.58548 1.94646 3.05686 3.46232 3.05686 5.98875C2.99411 6.48892 3.0387 6.99628 3.18782 7.47895C3.33695 7.96162 3.58739 8.40918 3.92342 8.79353C4.25945 9.17787 4.67382 9.49069 5.14048 9.71235C5.60715 9.934 6.11605 10.0597 6.63521 10.0816C7.47841 10.1072 8.30406 9.8446 8.96774 9.33965C9.63141 8.83469 10.0908 8.11955 10.2657 7.31933H6.96526V5.41609H12.9755V11.6985H11.03V8.85203C10.6758 9.80219 10.0141 10.6158 9.14373 11.1713C8.27339 11.7268 7.24108 11.9944 6.20095 11.9343C5.39763 11.9389 4.60146 11.7877 3.85924 11.4897C3.11702 11.1917 2.44372 10.7529 1.87892 10.199C1.31413 9.64504 0.869219 8.98724 0.570354 8.26423C0.271488 7.54121 0.124694 6.76756 0.138598 5.98875Z" fill="#030D0D"/>
<path d="M37.5719 6.86363C37.3605 8.4771 37.4488 10.1142 37.8325 11.6975H35.0532C34.7659 10.3807 34.6607 9.03267 34.7405 7.68893H18.3079V11.6975H15.876V0.294922H32.2044C35.7827 0.294922 37.7282 1.52445 37.7282 3.96666C37.7485 4.6004 37.5587 5.22375 37.1866 5.74517C36.8146 6.26658 36.2799 6.6586 35.6611 6.86363H37.5719ZM18.3079 2.09711V5.85306H31.9612C34.0804 5.85306 35.14 5.31409 35.14 3.93298C35.14 2.55186 34.1673 2.06342 32.0307 2.06342L18.3079 2.09711Z" fill="#030D0D"/>
<path d="M40.2119 5.98849C40.2119 2.41781 43.1128 0.0429688 47.2991 0.0429688C51.4855 0.0429688 54.4037 2.48518 54.4037 5.98849C54.4037 9.49181 51.4681 11.934 47.2991 11.934C43.1302 11.934 40.2119 9.55918 40.2119 5.98849ZM51.7808 5.98849C51.7915 5.42928 51.6793 4.87425 51.4517 4.36032C51.2241 3.84638 50.8863 3.38529 50.4607 3.00771C50.0352 2.63013 49.5316 2.3447 48.9835 2.17039C48.4354 1.99608 47.8553 1.93689 47.2818 1.99674C46.7175 1.96122 46.1517 2.03832 45.6193 2.22327C45.087 2.40822 44.5995 2.6971 44.1869 3.07203C43.7743 3.44696 43.4454 3.89998 43.2206 4.40307C42.9957 4.90616 42.8797 5.44862 42.8797 5.99692C42.8797 6.54521 42.9957 7.08767 43.2206 7.59076C43.4454 8.09385 43.7743 8.54687 44.1869 8.9218C44.5995 9.29673 45.087 9.58561 45.6193 9.77056C46.1517 9.95552 46.7175 10.0326 47.2818 9.99709C47.8568 10.0572 48.4384 9.99754 48.9877 9.82224C49.5371 9.64694 50.0415 9.36 50.4674 8.98057C50.8932 8.60114 51.2307 8.13797 51.4572 7.62199C51.6836 7.10601 51.794 6.54911 51.7808 5.98849Z" fill="#030D0D"/>
<path d="M58.3823 0.294922L61.8564 8.96899L65.3306 0.294922H67.7451L71.2192 8.86794L72.3309 5.49936H74.8323L72.8868 11.7312H69.6211L66.5986 3.49507L63.524 11.6975H60.2062L55.7246 0.294922H58.3823Z" fill="#030D0D"/>
<path d="M74.0507 0.294922H89.389L88.451 2.26554H82.3191V11.6975H79.8178V2.26554H73.3906L74.0507 0.294922Z" fill="#030D0D"/>
<path d="M95.4688 0.294922L100.888 11.6975H98.1612L97.0495 9.22164H90.7961L89.5975 11.7312H86.8877L92.3073 0.294922H95.4688ZM96.3199 7.38576L93.9402 1.84446L91.5083 7.38576H96.3199Z" fill="#030D0D"/>
<path d="M103.65 9.03705C105.009 9.70236 106.506 10.0594 108.028 10.0813C109.973 10.0813 111.015 9.50865 111.015 8.71704C111.015 6.56115 103.251 7.03275 103.251 3.19258C103.251 1.28934 105.196 0.0429688 108.323 0.0429688C110.018 0.045128 111.696 0.377322 113.256 1.01985L112.561 2.87257C111.232 2.29892 109.795 1.99513 108.34 1.9799C106.603 1.9799 105.908 2.40097 105.908 3.1589C105.908 5.41584 113.638 5.1632 113.638 8.81809C113.638 10.6708 111.588 11.9845 108.062 11.9845C106.305 11.986 104.569 11.6182 102.973 10.9066L103.65 9.03705Z" fill="#030D0D"/>
<path d="M119.023 0.294922V5.09513H130.922L136.237 0.294922H139.485L133.805 5.34778L139.972 11.647H136.828L132.155 6.84679H119.04V11.6638H116.521V0.294922H119.023Z" fill="#030D0D"/>
<path d="M47.3001 7.37059C48.1443 7.37059 48.8287 6.707 48.8287 5.88842C48.8287 5.06984 48.1443 4.40625 47.3001 4.40625C46.4559 4.40625 45.7715 5.06984 45.7715 5.88842C45.7715 6.707 46.4559 7.37059 47.3001 7.37059Z" fill="#030D0D"/>
</svg>
