<svg width="24" height="24" viewBox="0 0 24 24" fill="none" xmlns="http://www.w3.org/2000/svg">
<path d="M0 8C0 4.22876 0 2.34315 1.17157 1.17157C2.34315 0 4.22876 0 8 0H16C19.7712 0 21.6569 0 22.8284 1.17157C24 2.34315 24 4.22876 24 8V16C24 19.7712 24 21.6569 22.8284 22.8284C21.6569 24 19.7712 24 16 24H8C4.22876 24 2.34315 24 1.17157 22.8284C0 21.6569 0 19.7712 0 16V8Z" fill="#2E4CE6"/>
<circle cx="12.2285" cy="12.1992" r="9" fill="#FFCCCC"/>
<ellipse cx="9.4334" cy="18.3594" rx="1.51738" ry="1.52341" fill="#0D2080"/>
<ellipse cx="16.3865" cy="17.0273" rx="1.51738" ry="1.52341" fill="#0D2080"/>
<path d="M5.10352 9.22068L18.5525 6.83984L19.343 11.3406C19.634 12.9978 18.5319 14.5781 16.8813 14.8703L6.42097 16.722L5.10352 9.22068Z" fill="#0D2080"/>
<path d="M18.5525 6.83984L5.10352 9.22068L6.42097 16.722L6.42106 16.722L6.15768 15.2224L19.2064 12.9124C19.3833 12.4258 19.439 11.8874 19.343 11.3406L18.5525 6.83984Z" fill="#2E4CE6"/>
<rect width="1.51756" height="10.6626" transform="matrix(0.984689 -0.174317 0.172981 0.984925 4.57812 6.2207)" fill="#0D2080"/>
<rect width="1.52323" height="3.72948" transform="matrix(0.172981 0.984925 -0.984689 0.174317 6.07227 5.95703)" fill="#0D2080"/>
<path d="M10.3751 12.5366C10.0426 12.466 9.72772 12.3468 9.43055 12.179C9.13913 12.0075 8.91362 11.8176 8.75403 11.6093L9.27958 10.8465C9.64078 11.2521 10.0637 11.5063 10.5482 11.6092C10.819 11.6667 11.0421 11.6444 11.2175 11.5421C11.3976 11.4409 11.5113 11.2782 11.5586 11.054C11.6068 10.8251 11.5719 10.6258 11.4538 10.4562C11.3404 10.2876 11.1602 10.1771 10.9132 10.1246C10.5569 10.049 10.2242 10.1203 9.91515 10.3387L9.20258 10.1873L9.85838 7.07532L13.0364 7.75037L12.845 8.65893L10.7286 8.2094L10.4904 9.33974C10.7554 9.23656 11.0517 9.21979 11.3795 9.28941C11.6978 9.35702 11.9611 9.4852 12.1695 9.67397C12.3789 9.85796 12.5245 10.0857 12.6062 10.3572C12.688 10.6287 12.6952 10.9242 12.6278 11.2437C12.5565 11.5824 12.4182 11.8619 12.2129 12.0824C12.0076 12.3029 11.7474 12.4544 11.4322 12.5369C11.117 12.6195 10.7646 12.6194 10.3751 12.5366Z" fill="#FFD580"/>
<path d="M14.3327 12.9961L14.6267 11.6011L13.2728 11.3135L13.4296 10.5695L14.7835 10.857L15.0684 9.50493L15.838 9.66839L15.5531 11.0205L16.9069 11.3081L16.7502 12.0521L15.3963 11.7645L15.1023 13.1596L14.3327 12.9961Z" fill="#FFD580"/>
</svg>
