<svg width="60" height="60" viewBox="0 0 60 60" fill="none" xmlns="http://www.w3.org/2000/svg">
<rect width="60" height="60" rx="12" fill="#2E4CE6"/>
<circle cx="30.5684" cy="30.5" r="22.5" fill="#FFCCCC"/>
<ellipse cx="23.5825" cy="45.9003" rx="3.79345" ry="3.80853" fill="#0D2080"/>
<ellipse cx="40.9653" cy="42.5683" rx="3.79345" ry="3.80853" fill="#0D2080"/>
<path d="M12.7598 23.0556L46.3822 17.1035L48.3584 28.3555C49.086 32.4984 46.3306 36.4491 42.2042 37.1796L16.0534 41.809L12.7598 23.0556Z" fill="#0D2080"/>
<path d="M46.3822 17.1035L12.7598 23.0556L16.0534 41.809L16.0536 41.8089L15.3952 38.0598L48.0169 32.2848C48.4593 31.0685 48.5984 29.7225 48.3584 28.3555L46.3822 17.1035Z" fill="#2E4CE6"/>
<rect width="3.79391" height="26.6565" transform="matrix(0.984689 -0.174317 0.172981 0.984925 11.4434 15.5547)" fill="#0D2080"/>
<rect width="3.80808" height="9.32369" transform="matrix(0.172981 0.984925 -0.984689 0.174317 15.1816 14.8926)" fill="#0D2080"/>
<path d="M25.9348 31.3426C25.1035 31.166 24.3164 30.868 23.5734 30.4486C22.8449 30.0198 22.2811 29.545 21.8821 29.0243L23.196 27.1171C24.099 28.1311 25.1562 28.7667 26.3676 29.0241C27.0445 29.1678 27.6023 29.1119 28.0408 28.8563C28.4912 28.6031 28.7754 28.1964 28.8935 27.636C29.0141 27.0636 28.9268 26.5655 28.6315 26.1415C28.3481 25.7201 27.8976 25.4437 27.28 25.3126C26.3893 25.1234 25.5576 25.3017 24.7849 25.8477L23.0035 25.4693L24.643 17.6893L32.5882 19.3769L32.1095 21.6483L26.8187 20.5245L26.2232 23.3503C26.8855 23.0924 27.6264 23.0504 28.4459 23.2245C29.2416 23.3935 29.8999 23.714 30.4208 24.1859C30.9443 24.6459 31.3082 25.2152 31.5126 25.894C31.717 26.5727 31.735 27.3115 31.5667 28.1103C31.3883 28.9569 31.0425 29.6558 30.5293 30.207C30.0161 30.7582 29.3655 31.137 28.5775 31.3433C27.7896 31.5497 26.9087 31.5494 25.9348 31.3426Z" fill="#FFD580"/>
<path d="M35.8289 32.4912L36.5638 29.0036L33.1791 28.2847L33.5711 26.4246L36.9558 27.1436L37.6681 23.7633L39.592 24.172L38.8797 27.5522L42.2644 28.2712L41.8725 30.1312L38.4877 29.4123L37.7528 32.8999L35.8289 32.4912Z" fill="#FFD580"/>
</svg>
