<svg width="20" height="20" viewBox="0 0 20 20" fill="none" xmlns="http://www.w3.org/2000/svg">
<path fill-rule="evenodd" clip-rule="evenodd" d="M0.513823 10C0.513823 9.44772 0.961538 9 1.51382 9L8.9991 9L8.9991 1.51472C8.9991 0.962434 9.44682 0.514719 9.9991 0.514719C10.5514 0.514719 10.9991 0.962434 10.9991 1.51472L10.9991 9H18.4844C19.0367 9 19.4844 9.44772 19.4844 10C19.4844 10.5523 19.0367 11 18.4844 11H10.9991L10.9991 18.4853C10.9991 19.0376 10.5514 19.4853 9.9991 19.4853C9.44682 19.4853 8.9991 19.0376 8.9991 18.4853L8.9991 11L1.51382 11C0.961538 11 0.513823 10.5523 0.513823 10Z" fill="white"/>
</svg>
